<svg width="402" height="242" viewBox="0 0 402 242" fill="none" xmlns="http://www.w3.org/2000/svg">
<g clip-path="url(#clip0_1212_254)">
<path d="M1 50.0049C1 34.6777 5.11523 22.689 13.3457 14.0386C21.5762 5.34619 32.2002 1 45.2178 1C53.7422 1 61.4268 3.03662 68.2715 7.10986C75.1162 11.1831 80.3232 16.873 83.8926 24.1797C87.5039 31.4443 89.3096 39.6958 89.3096 48.9341C89.3096 58.2983 87.4199 66.6758 83.6406 74.0664C79.8613 81.457 74.5073 87.063 67.5786 90.8843C60.6499 94.6636 53.1753 96.5532 45.1548 96.5532C36.4624 96.5532 28.6938 94.4536 21.8491 90.2544C15.0044 86.0552 9.81836 80.3232 6.29102 73.0586C2.76367 65.7939 1 58.1094 1 50.0049ZM13.5977 50.1938C13.5977 61.3218 16.5791 70.0981 22.542 76.5229C28.5469 82.9058 36.0635 86.0972 45.0918 86.0972C54.2881 86.0972 61.8467 82.8638 67.7676 76.397C73.7305 69.9302 76.7119 60.7549 76.7119 48.8711C76.7119 41.3545 75.4312 34.8037 72.8696 29.2188C70.3501 23.5918 66.6338 19.2456 61.7207 16.1802C56.8496 13.0728 51.3696 11.519 45.2808 11.519C36.6304 11.519 29.1768 14.5005 22.9199 20.4634C16.7051 26.3843 13.5977 36.2944 13.5977 50.1938Z" fill="black"/>
<path d="M103.671 120.978V28.085H114.001V36.7773C116.437 33.376 119.187 30.8354 122.252 29.1558C125.318 27.4341 129.034 26.5732 133.401 26.5732C139.112 26.5732 144.151 28.043 148.519 30.9824C152.886 33.9219 156.182 38.0791 158.408 43.4541C160.633 48.7871 161.746 54.645 161.746 61.0278C161.746 67.8726 160.507 74.0454 158.03 79.5464C155.594 85.0054 152.025 89.2046 147.322 92.144C142.661 95.0415 137.748 96.4902 132.583 96.4902C128.803 96.4902 125.402 95.6924 122.378 94.0967C119.397 92.501 116.94 90.4854 115.009 88.0498V120.978H103.671ZM113.938 61.9097C113.938 70.5181 115.681 76.8799 119.166 80.9951C122.651 85.1104 126.872 87.168 131.827 87.168C136.866 87.168 141.17 85.0474 144.739 80.8062C148.351 76.5229 150.156 69.9092 150.156 60.9648C150.156 52.4404 148.393 46.0576 144.865 41.8164C141.38 37.5752 137.202 35.4546 132.331 35.4546C127.501 35.4546 123.218 37.7222 119.481 42.2573C115.786 46.7505 113.938 53.3013 113.938 61.9097Z" fill="black"/>
<path d="M221.27 73.4365L232.986 74.8853C231.138 81.73 227.716 87.042 222.719 90.8213C217.722 94.6006 211.339 96.4902 203.57 96.4902C193.786 96.4902 186.018 93.4878 180.265 87.4829C174.554 81.436 171.698 72.9746 171.698 62.0986C171.698 50.8447 174.596 42.1104 180.391 35.8955C186.186 29.6807 193.702 26.5732 202.94 26.5732C211.885 26.5732 219.191 29.6177 224.86 35.7065C230.529 41.7954 233.364 50.3618 233.364 61.4058C233.364 62.0776 233.343 63.0854 233.301 64.4292H183.414C183.834 71.7778 185.913 77.4048 189.65 81.3101C193.387 85.2153 198.048 87.168 203.633 87.168C207.791 87.168 211.339 86.0762 214.278 83.8926C217.218 81.709 219.548 78.2236 221.27 73.4365ZM184.044 55.1069H221.396C220.892 49.48 219.464 45.2598 217.113 42.4463C213.501 38.0791 208.819 35.8955 203.066 35.8955C197.859 35.8955 193.471 37.6382 189.902 41.1235C186.375 44.6089 184.422 49.27 184.044 55.1069Z" fill="black"/>
<path d="M247.284 94.9785V28.085H257.488V37.5962C262.401 30.2476 269.498 26.5732 278.778 26.5732C282.81 26.5732 286.505 27.3081 289.864 28.7778C293.266 30.2056 295.806 32.0952 297.486 34.4468C299.166 36.7983 300.341 39.5908 301.013 42.8242C301.433 44.9238 301.643 48.5981 301.643 53.8472V94.9785H290.305V54.2881C290.305 49.6689 289.864 46.2256 288.982 43.958C288.101 41.6484 286.526 39.8218 284.258 38.478C282.033 37.0923 279.408 36.3994 276.385 36.3994C271.556 36.3994 267.377 37.9321 263.85 40.9976C260.365 44.063 258.622 49.8789 258.622 58.4453V94.9785H247.284Z" fill="black"/>
<path d="M103.671 242.478V137.969H124.773V184.378L167.404 137.969H195.777L156.425 178.675L197.916 242.478H170.612L141.882 193.431L124.773 210.897V242.478H103.671Z" fill="black"/>
<path d="M209.108 242.478V137.969H229.639L272.413 207.76V137.969H292.017V242.478H270.844L228.712 174.326V242.478H209.108Z" fill="black"/>
<path d="M303.78 242.478L339.496 187.942L307.13 137.969H331.796L352.755 171.546L373.287 137.969H397.739L365.231 188.726L400.947 242.478H375.497L352.328 206.335L329.087 242.478H303.78Z" fill="black"/>
<line x1="-0.00111127" y1="116" x2="97.763" y2="115.978" stroke="#449841" stroke-width="10"/>
<line x1="120.764" y1="115.978" x2="403" y2="115.978" stroke="#449841" stroke-width="10"/>
<line x1="352.764" y1="98.9783" x2="352.764" y2="110.978" stroke="#449841" stroke-width="10"/>
<rect x="318.764" y="27.9783" width="67" height="67" fill="#449841"/>
<line x1="45.7642" y1="132.978" x2="45.7642" y2="120.978" stroke="#449841" stroke-width="10"/>
<rect x="79.7642" y="204.978" width="67" height="67" transform="rotate(-180 79.7642 204.978)" fill="#449841"/>
</g>
<defs>
<clipPath id="clip0_1212_254">
<rect width="402" height="242" fill="white"/>
</clipPath>
</defs>
</svg>
